<svg width="229" height="29" viewBox="0 0 229 29" fill="none" xmlns="http://www.w3.org/2000/svg">
<g filter="url(#filter0_d_3439_744)">
<path d="M37.8076 20.5361C36.7841 20.5361 36.2724 20.5361 35.9544 20.2182C35.6365 19.9002 35.6365 19.3885 35.6365 18.365V4.53454C35.6365 3.51108 35.6365 2.99935 35.9544 2.6814C36.2724 2.36345 36.7841 2.36345 37.8076 2.36345H38.5018C39.5253 2.36345 40.037 2.36345 40.355 2.6814C40.6729 2.99935 40.6729 3.51108 40.6729 4.53454V18.365C40.6729 19.3885 40.6729 19.9002 40.355 20.2182C40.037 20.5361 39.5253 20.5361 38.5018 20.5361H37.8076Z" fill="white"/>
<path d="M50.6102 20.5361C49.5867 20.5361 49.075 20.5361 48.757 20.2182C48.4391 19.9002 48.4391 19.3885 48.4391 18.365V8.9479C48.4391 7.92444 48.4391 7.41271 48.1211 7.09476C47.8032 6.77681 47.2914 6.77681 46.268 6.77681H45.1843C44.1609 6.77681 43.6491 6.77681 43.3312 6.45887C43.0132 6.14092 43.0132 5.62919 43.0132 4.60573V4.53454C43.0132 3.51108 43.0132 2.99935 43.3312 2.6814C43.6491 2.36345 44.1609 2.36345 45.1843 2.36345H56.7562C57.7797 2.36345 58.2914 2.36345 58.6093 2.6814C58.9273 2.99935 58.9273 3.51108 58.9273 4.53454V4.60573C58.9273 5.62919 58.9273 6.14092 58.6093 6.45887C58.2914 6.77681 57.7797 6.77681 56.7562 6.77681H55.6466C54.6231 6.77681 54.1114 6.77681 53.7934 7.09476C53.4755 7.41271 53.4755 7.92444 53.4755 8.9479V18.365C53.4755 19.3885 53.4755 19.9002 53.1575 20.2182C52.8396 20.5361 52.3279 20.5361 51.3044 20.5361H50.6102Z" fill="white"/>
<path d="M63.3091 20.5361C62.2857 20.5361 61.7739 20.5361 61.456 20.2182C61.138 19.9002 61.138 19.3885 61.138 18.365V4.53454C61.138 3.51108 61.138 2.99935 61.456 2.6814C61.7739 2.36345 62.2857 2.36345 63.3091 2.36345H65.2477C65.8402 2.36345 66.1364 2.36345 66.3831 2.5012C66.6298 2.63895 66.7852 2.89115 67.096 3.39554L68.9472 6.3995C69.7753 7.74332 70.1893 8.41523 70.7955 8.41523C71.4017 8.41523 71.8157 7.74332 72.6438 6.3995L74.495 3.39554C74.8058 2.89115 74.9612 2.63895 75.2079 2.5012C75.4546 2.36345 75.7508 2.36345 76.3433 2.36345H78.2819C79.3053 2.36345 79.8171 2.36345 80.135 2.6814C80.453 2.99935 80.453 3.51108 80.453 4.53454V18.365C80.453 19.3885 80.453 19.9002 80.135 20.2182C79.8171 20.5361 79.3054 20.5361 78.2819 20.5361H77.6136C76.5901 20.5361 76.0784 20.5361 75.7605 20.2182C75.4425 19.9002 75.4425 19.3885 75.4425 18.365V17.3928C75.4425 14.4222 75.4425 12.9368 74.6667 12.7059C73.8909 12.4749 73.0785 13.7184 71.4538 16.2054L70.8239 17.1697C70.8062 17.1968 70.776 17.2131 70.7436 17.2131V17.2131C70.7112 17.2131 70.681 17.1967 70.6633 17.1696L70.0508 16.2302C68.4343 13.7509 67.626 12.5113 66.8533 12.7358C66.849 12.737 66.8448 12.7383 66.8405 12.7396C66.0706 12.9736 66.0706 14.4534 66.0706 17.4131V18.365C66.0706 19.3885 66.0706 19.9002 65.7527 20.2182C65.4347 20.5361 64.923 20.5361 63.8995 20.5361H63.3091Z" fill="white"/>
<path d="M92.8406 20.8996C87.233 20.8996 83.0793 16.6939 83.0793 11.5017V11.4498C83.0793 6.23163 87.285 2 92.8925 2C98.5001 2 102.654 6.20567 102.654 11.3979V11.4498C102.654 16.6679 98.4482 20.8996 92.8406 20.8996ZM92.8925 16.3564C95.6444 16.3564 97.4876 14.1238 97.4876 11.5017V11.4498C97.4876 8.80177 95.6184 6.54316 92.8406 6.54316C90.0628 6.54316 88.2196 8.77581 88.2196 11.3979V11.4498C88.2196 14.0459 90.1147 16.3564 92.8925 16.3564Z" fill="white"/>
<path d="M112.192 20.5361C110.889 20.5361 110.238 20.5361 109.912 20.1106C109.587 19.6851 109.756 19.0564 110.096 17.7991L113.83 3.96861C114.038 3.19676 114.143 2.81084 114.435 2.58715C114.727 2.36345 115.127 2.36345 115.926 2.36345H117.304C117.825 2.36345 118.085 2.36345 118.275 2.43789C118.652 2.58521 118.916 2.93011 118.96 3.3326C118.982 3.53596 118.913 3.78705 118.777 4.28924V4.28924C118.447 5.50636 118.282 6.11493 118.358 6.3984C118.511 6.96763 119.091 7.31038 119.664 7.17048C119.949 7.10081 120.403 6.66282 121.31 5.78682L124.227 2.97027C124.536 2.67188 124.691 2.52268 124.884 2.44371C124.886 2.44289 124.888 2.44207 124.89 2.44126C125.085 2.36345 125.299 2.36345 125.729 2.36345V2.36345C128.048 2.36345 129.207 2.36345 129.481 3.04311C129.484 3.0494 129.486 3.05571 129.489 3.06205C129.75 3.74672 128.9 4.53508 127.199 6.1118L123.764 9.29745C123.237 9.78636 122.973 10.0308 122.899 10.3583C122.825 10.6858 122.957 11.0201 123.222 11.6887L125.549 17.5658C126.082 18.9122 126.348 19.5854 126.025 20.0607C125.702 20.5361 124.978 20.5361 123.53 20.5361H122.805C122.076 20.5361 121.712 20.5361 121.433 20.3426C121.154 20.149 121.026 19.8079 120.771 19.1257L119.8 16.5294C119.291 15.1689 119.037 14.4886 118.477 14.3532C117.917 14.2178 117.38 14.7066 116.305 15.6842L115.984 15.9768C115.748 16.1911 115.631 16.2982 115.549 16.4324C115.468 16.5665 115.427 16.7204 115.346 17.0282L114.846 18.9195C114.641 19.6966 114.538 20.0851 114.245 20.3106C113.953 20.5361 113.551 20.5361 112.747 20.5361H112.192Z" fill="white"/>
<path d="M131.078 20.5361C129.778 20.5361 129.127 20.5361 128.802 20.1112C128.476 19.6862 128.644 19.0581 128.982 17.8019L132.696 3.9714C132.904 3.19828 133.008 2.81172 133.3 2.58759C133.592 2.36345 133.992 2.36345 134.793 2.36345H135.333C136.634 2.36345 137.284 2.36345 137.61 2.78841C137.936 3.21337 137.768 3.84147 137.43 5.09767L133.716 18.9282C133.508 19.7013 133.404 20.0878 133.112 20.312C132.82 20.5361 132.419 20.5361 131.619 20.5361H131.078Z" fill="white"/>
<path d="M139.395 20.5361C138.093 20.5361 137.441 20.5361 137.116 20.1106C136.79 19.6851 136.959 19.0564 137.299 17.7991L141.033 3.96861C141.242 3.19676 141.346 2.81084 141.638 2.58715C141.93 2.36345 142.33 2.36345 143.129 2.36345H144.758C145.429 2.36345 145.765 2.36345 146.032 2.53309C146.298 2.70272 146.44 3.00664 146.725 3.61448L148.349 7.08548C149.402 9.33596 149.928 10.4612 150.684 10.3953C151.44 10.3294 151.764 9.12997 152.411 6.73119L153.157 3.96876C153.365 3.19684 153.47 2.81088 153.762 2.58717C154.054 2.36345 154.454 2.36345 155.253 2.36345H155.744C157.044 2.36345 157.695 2.36345 158.021 2.78841C158.347 3.21337 158.178 3.84147 157.84 5.09767L154.126 18.9282C153.918 19.7013 153.815 20.0878 153.522 20.312C153.23 20.5361 152.83 20.5361 152.029 20.5361H150.662C149.991 20.5361 149.655 20.5361 149.389 20.3665C149.122 20.1968 148.98 19.8929 148.696 19.285L146.899 15.4453C145.843 13.1873 145.315 12.0584 144.558 12.1253C143.801 12.1922 143.479 13.3963 142.835 15.8046L142.001 18.9257C141.794 19.7 141.69 20.0871 141.398 20.3116C141.106 20.5361 140.705 20.5361 139.903 20.5361H139.395Z" fill="white"/>
<path d="M169.329 2.02596C174.521 2.02596 178 5.55665 178 10.1517C178 12.9815 176.832 15.7333 174.833 17.7323C172.886 19.6275 170.29 20.8736 167.2 20.8736C162.008 20.8736 158.529 17.3689 158.529 12.7219C158.529 9.89213 159.698 7.16623 161.697 5.16724C163.644 3.22016 166.24 2.02596 169.329 2.02596ZM167.642 16.3564C169.018 16.3564 170.186 15.7853 171.094 14.8766C172.211 13.7603 172.886 12.1248 172.886 10.5671C172.886 8.25659 171.484 6.54316 168.888 6.54316C167.512 6.54316 166.344 7.08835 165.435 7.99698C164.319 9.13926 163.644 10.7748 163.644 12.3325C163.644 14.643 165.046 16.3564 167.642 16.3564Z" fill="white"/>
<path fill-rule="evenodd" clip-rule="evenodd" d="M5.19508 2C4.63171 2 4.35003 2 4.17502 2.17502C4 2.35003 4 2.63171 4 3.19508V19.3926C4 19.956 4 20.2377 4.17502 20.4127C4.35003 20.5877 4.63171 20.5877 5.19508 20.5877H10.1797C10.1908 20.5877 10.2018 20.5888 10.2127 20.5908V20.5908C10.2732 20.6025 10.3354 20.5814 10.3763 20.5353L12.1968 18.4824C12.6267 17.9977 12.8416 17.7553 13.1164 17.7599C13.3912 17.7645 13.5979 18.014 14.0112 18.513L15.3897 20.177C15.566 20.3897 15.6541 20.4961 15.7749 20.5529C15.8956 20.6097 16.0338 20.6097 16.31 20.6097H24.3911C25.5406 20.6097 26.1154 20.6097 26.2735 20.256C26.4316 19.9022 26.0482 19.474 25.2815 18.6175L19.3585 12.0008C19.0206 11.6233 18.8516 11.4345 18.8511 11.207C18.8506 10.9794 19.0187 10.7898 19.3548 10.4108L25.0506 3.98804C25.8092 3.13262 26.1885 2.70491 26.0299 2.35247C25.8714 2.00003 25.2998 2.00003 24.1564 2.00003H15.7924C15.5232 2.00003 15.3886 2.00003 15.2702 2.05424C15.1518 2.10844 15.0638 2.21029 14.8879 2.41399L13.7576 3.72278C13.3437 4.20203 13.1367 4.44165 12.8665 4.44406C12.5962 4.44646 12.385 4.21055 11.9627 3.73873L10.4403 2.03804C10.4186 2.01386 10.3877 2.00003 10.3553 2.00003H10.2411C10.2411 2.00003 10.2411 2.00003 10.2411 2.00002V2.00002C10.2411 2.00001 10.2411 2 10.2411 2H5.19508Z" fill="white"/>
<path d="M192.758 16V12.9664H195.691V7.69144L192.826 8.53409V5.31515L196.719 4.20285H199.415V12.9664H202.011V16H192.758ZM209.2 16.2528C204.65 16.2528 202.712 14.1125 202.712 10.2868C202.712 5.66907 205.593 3.95005 209.807 3.95005C211.458 3.95005 212.925 4.15229 214.306 4.60732V7.62402C212.992 7.03417 211.728 6.81508 210.211 6.81508C207.902 6.81508 206.857 7.4892 206.537 8.95542C207.532 8.39927 208.762 8.12962 210.127 8.12962C213.312 8.12962 215.149 9.3936 215.149 11.989C215.149 14.7866 213.076 16.2528 209.2 16.2528ZM206.487 11.3148C206.689 13.0002 207.498 13.3878 209.183 13.3878C210.7 13.3878 211.34 12.9159 211.34 12.0564C211.34 11.1969 210.683 10.7418 209.183 10.7418C208.155 10.7418 207.245 10.9609 206.487 11.3148ZM218.998 14.2978V11.4665H216.116V8.73633H218.998V5.85445H221.745V8.73633H224.61V11.4665H221.745V14.2978H218.998Z" fill="#FFD3AA" fill-opacity="0.34"/>
</g>
<defs>
<filter id="filter0_d_3439_744" x="0" y="2" width="228.61" height="26.8994" filterUnits="userSpaceOnUse" color-interpolation-filters="sRGB">
<feFlood flood-opacity="0" result="BackgroundImageFix"/>
<feColorMatrix in="SourceAlpha" type="matrix" values="0 0 0 0 0 0 0 0 0 0 0 0 0 0 0 0 0 0 127 0" result="hardAlpha"/>
<feOffset dy="4"/>
<feGaussianBlur stdDeviation="2"/>
<feComposite in2="hardAlpha" operator="out"/>
<feColorMatrix type="matrix" values="0 0 0 0 0 0 0 0 0 0 0 0 0 0 0 0 0 0 0.25 0"/>
<feBlend mode="normal" in2="BackgroundImageFix" result="effect1_dropShadow_3439_744"/>
<feBlend mode="normal" in="SourceGraphic" in2="effect1_dropShadow_3439_744" result="shape"/>
</filter>
</defs>
</svg>
